<svg width="99" height="38" fill="none" xmlns="http://www.w3.org/2000/svg"><path fill-rule="evenodd" clip-rule="evenodd" d="M74.215 35.72v-4.156c0-.84-.012-1.678-.034-2.517-.02-.75-.047-1.544-.082-2.381-.037-.88-.08-1.76-.13-2.64-.031-.42-.05-.983-.058-1.688l-.003-.688a114.495 114.495 0 0 1-.174-4.164 48.87 48.87 0 0 1-.01-.953l.06-2.558a47.977 47.977 0 0 0 .017-4.477l-.016-.275a52.962 52.962 0 0 1-.092-1.142 8.016 8.016 0 0 0-.023-.267 3.96 3.96 0 0 0-.07-.464l-.123.32c-.122.6-.249 1.2-.38 1.8-.363 1.658-.82 3.607-1.37 5.848-.093.375-.185.75-.279 1.124a779.977 779.977 0 0 1-2.213 8.726c-.528 1.795-.883 3.112-1.063 3.951-.015.069-.03.137-.043.206a1.76 1.76 0 0 1-.523.96 1.536 1.536 0 0 1-.259.192 1.243 1.243 0 0 1-.632.173c-.228 0-.447-.062-.618-.173a1.288 1.288 0 0 1-.492-.543 1.97 1.97 0 0 1-.182-.7 32.843 32.843 0 0 0-.241-1.1c-.464-1.985-1.429-5.7-2.894-11.144-.212-.787-.425-1.575-.639-2.362-1.262-4.64-2.03-7.278-2.301-7.916a.635.635 0 0 0-.073-.138c-.063 1.43-.108 2.86-.137 4.29a240.381 240.381 0 0 0-.047 4.938c0 2.68.02 5.102.061 7.264.022 1.145.037 2.29.047 3.434.01 1.207.015 2.479.015 3.814v.016c0 .13.004.26.012.391a24.246 24.246 0 0 0 .172 1.756l.123 2.193c.001.134-.008.267-.027.4-.04.268-.122.48-.248.638a.84.84 0 0 1-.155.15 1.86 1.86 0 0 1-.849-.18 1.23 1.23 0 0 1-.555-.51c-.253-.394-.379-.956-.379-1.686v-7.63l.062-4.613c.04-1.371.061-2.924.061-4.66 0-.896.004-1.791.014-2.687a185.174 185.174 0 0 1 .047-2.704l.123-5.437v-4.02c0-.11.051-.218.143-.305a1.154 1.154 0 0 1 .35-.22 1 1 0 0 1 .368-.069c.269 0 .468.082.6.245.03.038.056.079.076.12.346.855 1.175 3.269 2.488 7.241l.28.846a594.142 594.142 0 0 1 2.74 8.49c.195.626.389 1.253.579 1.88.108.423.213.845.316 1.268.361 1.485.85 3.59 1.467 6.316l.43-1.782c.095-.42.225-.964.39-1.634l.164-.65.175-.842c.39-1.852.64-2.912.747-3.178l2.828-11.193.553-2.376.677-2.558.307-1.37c.04-.305.164-.541.369-.709.064-.053.138-.101.217-.142.135-.07.295-.108.46-.109.133 0 .262.033.368.094a.904.904 0 0 1 .184.134c.135.125.214.291.238.498.006.047.008.095.008.142v4.523c.002.644.013 1.289.035 1.933.069 2.14.24 4.932.514 8.376l.005.061c.287 4.264.43 7.69.43 10.28 0 .233.004.466.012.7.022.763.078 1.763.166 3l.006.091c.02.5.037.998.053 1.498.036 1.075.058 1.927.067 2.556l.004.515c0 .136-.003.271-.01.407-.018.386-.064.667-.139.844a.657.657 0 0 1-.036.074c-.164.183-.39.274-.676.274-.494 0-.838-.085-1.032-.255a.832.832 0 0 1-.192-.272 1.664 1.664 0 0 1-.124-.578 3.078 3.078 0 0 1-.005-.174zm-40.639-.228-.737-2.01c-1.148-2.832-1.988-5.223-2.52-7.172-.252-.817-.55-1.874-.898-3.172-.112-.42-.223-.84-.332-1.26-.514-1.962-.994-3.594-1.442-4.898-.051-.149-.104-.298-.157-.447l-.615.274-.8.274.124 17.589v.685c0 .61-.369.914-1.107.914-.125 0-.249-.012-.369-.038a1.12 1.12 0 0 1-.43-.19.785.785 0 0 1-.227-.246.586.586 0 0 1-.08-.303v-.685l.122-9.228.123-4.432c.06-1.887.11-3.774.15-5.662.032-1.48.056-2.883.072-4.208.016-1.248.024-2.496.024-3.744V1.64c0-.244.291-.38.873-.407a7.018 7.018 0 0 1 3.216.635c.922.426 1.65 1.005 2.182 1.736 1.107 1.492 1.66 3.122 1.66 4.888a8.484 8.484 0 0 1-.327 2.264c-.204.74-.505 1.508-.902 2.305a22.506 22.506 0 0 1-.595 1.04c-.107.179-.217.358-.327.536-.284.457-.544.801-.779 1.032a1.951 1.951 0 0 1-.205.179c.853 2.324 2.088 5.89 3.707 10.697l.043.13 2.89 8.223c.04.089.06.248.061.478v.025c0 .274-.071.51-.215.708a.69.69 0 0 1-.169.166.806.806 0 0 1-.477.131c-.681 0-1.15-.21-1.407-.632a1.394 1.394 0 0 1-.13-.282zm-20.165-.32v-5.984c0-.346-.936-.664-2.807-.956a46.713 46.713 0 0 0-3.967-.452 23.57 23.57 0 0 0-1.526-.054.104.104 0 0 0-.032.01.076.076 0 0 0-.025.018c-.081.074-.195.293-.343.657-.177.44-.307.767-.39.981l-.01.024a146.988 146.988 0 0 0-1.598 5.071l-.307 1.005a.526.526 0 0 1-.092.169c-.107.131-.282.197-.523.197-.328 0-.625-.076-.891-.229a1.089 1.089 0 0 1-.228-.167.525.525 0 0 1-.172-.38l.061-.092v-.046l.677-2.284a64.873 64.873 0 0 0 1.29-4.203c.41-1.553.718-2.559.923-3.015.307-.94.901-3.201 1.782-6.782l.185-.756.37-1.508c.185-.819.374-1.637.564-2.455.766-3.282 1.316-5.418 1.649-6.408.157-.56.41-1.324.759-2.295.114-.316.23-.633.347-.949a9.091 9.091 0 0 1 .861-1.827c.063-.09.13-.178.201-.264.215-.262.406-.423.574-.484a.427.427 0 0 1 .147-.029c.18 0 .358.013.534.04.22.036.41.097.57.182.12.065.225.144.31.235.205.274.523 1.782.953 4.523.43 2.741.81 5.513 1.138 8.315l.799 7.583c0 1.304.122 3.272.366 5.904l.003.036c.246 2.68.369 4.675.369 5.984v.183c0 .177-.018.355-.057.53a2.04 2.04 0 0 1-.128.384.723.723 0 0 1-.38.262c-.198.069-.461.103-.788.103a1.713 1.713 0 0 1-.44-.053 1.27 1.27 0 0 1-.39-.175c-.225-.152-.338-.335-.338-.548zm82.568 0v-5.984c0-.346-.936-.664-2.807-.956l-.328-.05a46.72 46.72 0 0 0-3.64-.402 23.569 23.569 0 0 0-1.525-.054.104.104 0 0 0-.032.01.076.076 0 0 0-.024.018c-.082.074-.196.293-.343.657a79.749 79.749 0 0 0-.4 1.005 147.206 147.206 0 0 0-1.598 5.071l-.308 1.005a.524.524 0 0 1-.091.169c-.108.131-.283.197-.524.197-.328 0-.625-.076-.891-.229a1.088 1.088 0 0 1-.228-.167.524.524 0 0 1-.172-.38l.062-.092v-.046l.676-2.284a64.88 64.88 0 0 0 1.256-4.075l.035-.128c.41-1.553.718-2.559.922-3.015.307-.94.901-3.201 1.782-6.782l.186-.756.369-1.508c.186-.819.374-1.637.565-2.455.766-3.282 1.315-5.418 1.648-6.408a35.7 35.7 0 0 1 .76-2.295c.113-.316.229-.633.347-.949a9.1 9.1 0 0 1 .86-1.827c.064-.09.13-.178.201-.264.216-.262.407-.423.574-.484a.427.427 0 0 1 .148-.029c.179 0 .358.013.533.04.22.036.41.097.57.182.12.065.226.144.31.235.206.274.523 1.782.954 4.523.43 2.741.809 5.513 1.137 8.315l.8 7.583c0 1.304.121 3.272.365 5.904l.003.036c.246 2.68.369 4.675.369 5.984v.183c0 .177-.018.355-.057.53-.029.13-.072.258-.127.384a.723.723 0 0 1-.38.262c-.199.069-.462.103-.789.103a1.713 1.713 0 0 1-.44-.053 1.27 1.27 0 0 1-.39-.175c-.225-.152-.338-.335-.338-.548zm-54.103.046v-.868a4.991 4.991 0 0 1-.061-.815v-.098l.061-6.67-.061-18.869c0-1.34-.02-2.557-.058-3.653a65.208 65.208 0 0 0-.065-1.418 1.63 1.63 0 0 1 .047-.4 1.28 1.28 0 0 1 .26-.513 1.013 1.013 0 0 1 .8-.365h3.811c.15 0 .3.002.45.007.272.009.5.028.684.055.053.008.105.018.157.029.13.027.249.078.344.149.096.07.165.158.202.254a.852.852 0 0 1 .065.268 1.2 1.2 0 0 1 .004.105c0 .244-.123.442-.369.594a1.875 1.875 0 0 1-.799.274h-1.045l-.984-.045-.983-.046c-.066 0-.13.002-.195.007-.182.014-.312.05-.39.107-.086.065-.136.179-.15.343-.002.03-.003.06-.003.091 0 1.432.02 2.726.061 3.883v9.594c0 .061.041.092.123.092h.123a51.606 51.606 0 0 1 1.912-.077c.47-.01.939-.015 1.408-.015.125 0 .25.009.371.029.409.07.613.274.613.61 0 .069-.004.137-.013.205a.7.7 0 0 1-.117.326.408.408 0 0 1-.085.087c-.141.104-.371.158-.69.16h-3.522c-.164 0-.246.076-.246.228l.123 6.761c.038.98.066 1.961.085 2.942a216.742 216.742 0 0 1 .038 4.322v1.69h5.779c.738 0 1.107.199 1.107.595 0 .487-.184.776-.553.868-.14.033-.285.058-.43.075-.469.06-1.146.095-2.033.105-.183.002-.367.002-.55.002H44.52c-.984 0-1.67-.068-2.06-.205a.975.975 0 0 1-.357-.21.65.65 0 0 1-.188-.31.959.959 0 0 1-.039-.28zM11.505 6.756l-.246-1.781v.002c-.003.014-.044-.155-.123-.505l-.123-.548a8.89 8.89 0 0 0-.304.704c-.19.491-.377 1.073-.559 1.745l-.09.338c-.122.474-.24.95-.35 1.426a111.344 111.344 0 0 0-.603 2.777c-.983 4.538-1.824 7.949-2.52 10.233l-.554 1.554c-.497 1.23-.793 2.223-.888 2.976-.022.165-.033.33-.034.496v.274c1.007.234 2.04.4 3.088.498a32.65 32.65 0 0 0 3.122.141h.369c.122.03.266.046.43.046.137 0 .274-.005.41-.016.274-.022.48-.07.616-.145a.407.407 0 0 0 .152-.129.277.277 0 0 0 .051-.167c0-1.706-.117-3.977-.35-6.813l-.08-.93a254.668 254.668 0 0 0-.389-4.075 177.81 177.81 0 0 0-.533-4.583 31.594 31.594 0 0 0-.492-3.518zm82.568 0-.246-1.781v.002c-.003.014-.044-.155-.123-.505l-.122-.548a8.964 8.964 0 0 0-.305.704c-.19.491-.376 1.073-.559 1.745l-.09.338c-.122.474-.239.95-.35 1.426a88.615 88.615 0 0 0-.602 2.777c-.984 4.538-1.824 7.949-2.521 10.233l-.553 1.554c-.498 1.23-.794 2.223-.889 2.976a3.98 3.98 0 0 0-.034.496v.274c1.007.234 2.04.4 3.088.498 1.035.097 2.078.144 3.122.141h.369c.123.03.266.046.43.046.137 0 .274-.005.41-.016.275-.022.48-.07.616-.145a.408.408 0 0 0 .153-.129.277.277 0 0 0 .05-.167c0-1.706-.116-3.977-.35-6.813-.026-.31-.052-.62-.08-.93a254.666 254.666 0 0 0-.388-4.075 177.783 177.783 0 0 0-.534-4.583 31.616 31.616 0 0 0-.492-3.518zM26.322 2.645h-.123a.27.27 0 0 1-.144.044.584.584 0 0 1-.04.001v12.884a.926.926 0 0 0 .277-.051c.271-.087.629-.285 1.072-.594.105-.073.209-.148.31-.223.78-.58 1.332-1.066 1.66-1.462.098-.148.183-.3.254-.456.156-.331.297-.738.423-1.22.021-.08.042-.162.061-.243.205-.853.308-1.614.308-2.284 0-1.25-.287-2.528-.861-3.838-.282-.748-.702-1.356-1.26-1.824a3.294 3.294 0 0 0-.645-.429 2.836 2.836 0 0 0-1.292-.305z" fill="#2BC0FF" stroke="#2BC0FF" stroke-width=".945" stroke-linecap="round"/></svg>